<svg width="32" height="32" viewBox="0 0 32 32" fill="none" xmlns="http://www.w3.org/2000/svg">
<path d="M21.6667 8.66667C21.6667 11.4281 19.4281 13.6667 16.6667 13.6667C13.9053 13.6667 11.6667 11.4281 11.6667 8.66667C11.6667 5.90525 13.9053 3.66667 16.6667 3.66667C19.4281 3.66667 21.6667 5.90525 21.6667 8.66667Z" stroke="white" stroke-width="2"/>
<path d="M13.3333 18L8.66667 15.3333L8 16C15.3333 24.6667 18 22.6667 21.3333 20C24 17.8667 28.2222 18.2222 30 18.6667L28.6667 16.6667C28.8889 16.4444 29.4667 15.7333 30 14.6667C23.3333 14 21.3333 15.3333 18.6667 17.3333C16.5333 18.9333 14.2222 18.4444 13.3333 18Z" fill="white" stroke="white" stroke-linecap="round" stroke-linejoin="round"/>
<path d="M14.6667 22L22.6667 29.3333L23.3334 26.6667H26.6667L20.6667 20.6667" stroke="white" stroke-linecap="round" stroke-linejoin="round"/>
<path d="M8 20L4 24L7.33333 27.3333L9.33333 25.3333L8 24L10 22L8 20Z" fill="white" stroke="white"/>
<path d="M13.3333 10.6667L2 22L4 24L10 18" stroke="white"/>
<path d="M11.3333 16.6667L15.3333 12.6667" stroke="white"/>
<path d="M12 16C12.8889 15.7778 15.2 15.8667 17.3333 18" stroke="white"/>
</svg>
