<svg width="32" height="32" viewBox="0 0 32 32" fill="none" xmlns="http://www.w3.org/2000/svg">
<path d="M16.0024 8C17.9823 8 19.5868 9.64633 19.5868 11.6764C19.5868 13.707 17.9823 15.3528 16.0024 15.3528C14.0234 15.3528 12.4189 13.707 12.4189 11.6764C12.4189 9.64633 14.0234 8 16.0024 8ZM16 24C14.0253 24 12.2166 23.2623 10.8216 22.0412C10.4818 21.7439 10.2857 21.3079 10.2857 20.8504C10.2857 18.7915 11.9101 17.1437 13.9177 17.1437H18.088C20.096 17.1437 21.7143 18.7915 21.7143 20.8504C21.7143 21.3084 21.5191 21.7434 21.1788 22.0407C19.7843 23.2623 17.9752 24 16 24Z" fill="white"/>
<circle cx="16" cy="16" r="12.3333" stroke="white" stroke-width="2"/>
</svg>
