<svg width="32" height="32" viewBox="0 0 32 32" fill="none" xmlns="http://www.w3.org/2000/svg">
<line x1="8.5" y1="11.5" x2="20.8333" y2="11.5" stroke="white" stroke-linecap="round"/>
<line x1="8.5" y1="14.1665" x2="15.5" y2="14.1665" stroke="white" stroke-linecap="round"/>
<path d="M22.9998 20.6667C22.9998 22.6917 21.3582 24.3333 19.3332 24.3333C17.3081 24.3333 15.6665 22.6917 15.6665 20.6667C15.6665 18.6416 17.3081 17 19.3332 17C21.3582 17 22.9998 18.6416 22.9998 20.6667Z" stroke="white" stroke-width="2"/>
<path d="M20.6665 24L22.6665 28" stroke="white" stroke-width="2" stroke-linecap="round"/>
<path d="M18 24L16 28" stroke="white" stroke-width="2" stroke-linecap="round"/>
<path fill-rule="evenodd" clip-rule="evenodd" d="M4.6665 7.33349L27.3332 7.3335L27.3332 22.0002H25.3332V24.0002H27.3332C28.4377 24.0002 29.3332 23.1047 29.3332 22.0002V7.3335C29.3332 6.22893 28.4377 5.3335 27.3332 5.3335H4.6665C3.56193 5.3335 2.6665 6.22892 2.6665 7.33349V22.0002C2.6665 23.1047 3.56193 24.0002 4.6665 24.0002H13.3332V22.0002H4.6665L4.6665 7.33349Z" fill="white"/>
</svg>
