<svg width="32" height="32" viewBox="0 0 32 32" fill="none" xmlns="http://www.w3.org/2000/svg">
<path d="M24 14.6667V6C24 4.89543 23.1046 4 22 4H6C4.89543 4 4 4.89543 4 6V26C4 27.1046 4.89543 28 6 28H6.66667" stroke="white" stroke-width="2" stroke-linecap="round"/>
<line x1="9.83331" y1="8.83334" x2="18.1666" y2="8.83334" stroke="white" stroke-linecap="round"/>
<line x1="9.83331" y1="12.8333" x2="18.1666" y2="12.8333" stroke="white" stroke-linecap="round"/>
<line x1="9.83331" y1="16.8333" x2="12.8333" y2="16.8333" stroke="white" stroke-linecap="round"/>
<path d="M8.0037 25.6292C8.02438 25.4442 8.13208 25.2824 8.2916 25.1961L8.31294 25.1857C8.36211 25.1644 9.5247 24.6642 10.2371 24.5607C10.3722 24.541 10.5144 24.5684 10.6446 24.6359L13.0372 25.5132C13.504 25.2648 15.2737 24.3238 17.3584 23.2231L12.4303 20.5361C12.2854 20.4571 12.201 20.3216 12.2049 20.1737C12.2086 20.026 12.2997 19.8954 12.4486 19.8245L14.1097 19.0316C14.2691 18.9556 14.5225 18.9255 14.6977 18.9642L22.2683 20.6478C23.8262 19.8387 25.1119 19.1826 25.6479 18.9374C26.0415 18.7574 26.5199 18.6667 27.0698 18.6667C27.9773 18.6667 29.0875 18.9366 29.2927 19.3349C29.3007 19.3502 29.8424 21.0132 26.714 22.8744L15.047 29.027C15.0353 29.0327 14.7571 29.1768 14.4865 29.226C14.0285 29.3092 13.5326 29.3333 13.0225 29.3333H12.8746C12.8039 29.3333 12.7344 29.3333 12.6661 29.3333H12.62V29.3165C12.2899 29.3165 12.0475 29.1687 12.0085 29.1408L8.19259 26.1308L8.18357 26.1196C8.0477 25.998 7.98324 25.8149 8.0037 25.6292ZM12.6203 29.0131H12.6202V29.0149L12.6203 29.0131Z" fill="white"/>
</svg>
