<svg width="24" height="24" viewBox="0 0 24 24" fill="none" xmlns="http://www.w3.org/2000/svg">
<path d="M8.06073 10C8.06073 8.80308 8.66503 7.95677 9.50698 7.37077C10.3816 6.76206 11.4323 6.5 12.0607 6.5C12.6891 6.5 13.7399 6.76206 14.6145 7.37077C15.4564 7.95677 16.0607 8.80308 16.0607 10C16.0607 13.3682 17.4388 15.2507 18.5346 15.853C18.8525 16.0842 19.0381 16.3092 19.1019 16.457C19.1158 16.4892 19.1199 16.5083 19.1211 16.517C19.1157 16.5291 19.0998 16.5573 19.0582 16.6014C18.8802 16.7902 18.38 17.1105 17.2011 17.399C16.0602 17.6782 14.4038 17.8997 12.0607 17.9991C9.71768 17.8997 8.06124 17.6782 6.92032 17.399C5.74141 17.1105 5.24128 16.7902 5.06326 16.6014C5.02164 16.5573 5.00576 16.5291 5.0004 16.517C5.00155 16.5083 5.0057 16.4892 5.01956 16.457C5.08332 16.3092 5.26892 16.0842 5.58683 15.853C6.68266 15.2507 8.06073 13.3682 8.06073 10ZM19.1234 16.5102C19.1236 16.5102 19.1233 16.5114 19.1223 16.514C19.1228 16.5115 19.1233 16.5102 19.1234 16.5102ZM19.1214 16.5227C19.1213 16.5228 19.1213 16.5219 19.1214 16.5203C19.1215 16.5219 19.1215 16.5227 19.1214 16.5227ZM4.99915 16.514C4.99816 16.5115 4.99789 16.5102 4.998 16.5102C4.99812 16.5102 4.99862 16.5115 4.99915 16.514ZM5.00006 16.5227C5 16.5227 4.99995 16.522 5.00006 16.5203C5.00017 16.5219 5.00011 16.5227 5.00006 16.5227Z" stroke="#616161" stroke-width="2"/>
<path fill-rule="evenodd" clip-rule="evenodd" d="M13.7932 7C13.9634 6.70583 14.0608 6.36429 14.0608 6C14.0608 4.89543 13.1654 4 12.0608 4C10.9562 4 10.0608 4.89543 10.0608 6C10.0608 6.36429 10.1582 6.70583 10.3284 7C10.6742 6.4022 11.3205 6 12.0608 6C12.8011 6 13.4474 6.4022 13.7932 7Z" fill="#616161"/>
<path fill-rule="evenodd" clip-rule="evenodd" d="M10.1096 19.4414C10.3106 20.3336 11.1078 21 12.0607 21C13.0136 21 13.8109 20.3336 14.0119 19.4414C13.3874 19.4804 12.7338 19.5 12.0607 19.5C11.3877 19.5 10.7341 19.4804 10.1096 19.4414Z" fill="#616161"/>
</svg>
