<svg width="24" height="24" viewBox="0 0 24 24" fill="none" xmlns="http://www.w3.org/2000/svg">
<mask id="path-2-inside-1" fill="white">
<path d="M12 6.375C7.02273 6.375 3 10.875 3 12C3 13.125 7.02273 17.625 12 17.625C16.9773 17.625 21 13.125 21 12C21 10.875 16.9773 6.375 12 6.375Z"/>
</mask>
<path d="M12 5.375C9.21546 5.375 6.75446 6.62743 5.01973 7.97616C4.14677 8.65488 3.42888 9.37975 2.91943 10.0294C2.66544 10.3533 2.45096 10.6741 2.29496 10.9747C2.15505 11.2443 2 11.6132 2 12H4C4 12.1056 3.97066 12.0877 4.07019 11.8959C4.15362 11.7351 4.2923 11.5198 4.49322 11.2636C4.89356 10.7531 5.49244 10.142 6.24732 9.55509C7.76827 8.37257 9.80726 7.375 12 7.375V5.375ZM2 12C2 12.3868 2.15505 12.7557 2.29496 13.0253C2.45096 13.3259 2.66544 13.6467 2.91943 13.9706C3.42888 14.6202 4.14677 15.3451 5.01973 16.0238C6.75446 17.3726 9.21546 18.625 12 18.625V16.625C9.80726 16.625 7.76827 15.6274 6.24732 14.4449C5.49244 13.858 4.89356 13.2469 4.49322 12.7364C4.2923 12.4802 4.15362 12.2649 4.07019 12.1041C3.97066 11.9123 4 11.8944 4 12H2ZM12 18.625C14.7845 18.625 17.2455 17.3726 18.9803 16.0238C19.8532 15.3451 20.5711 14.6202 21.0806 13.9706C21.3346 13.6467 21.549 13.3259 21.705 13.0253C21.845 12.7557 22 12.3868 22 12H20C20 11.8944 20.0293 11.9123 19.9298 12.1041C19.8464 12.2649 19.7077 12.4802 19.5068 12.7364C19.1064 13.2469 18.5076 13.858 17.7527 14.4449C16.2317 15.6274 14.1927 16.625 12 16.625V18.625ZM22 12C22 11.6132 21.845 11.2443 21.705 10.9747C21.549 10.6741 21.3346 10.3533 21.0806 10.0294C20.5711 9.37975 19.8532 8.65488 18.9803 7.97616C17.2455 6.62743 14.7845 5.375 12 5.375V7.375C14.1927 7.375 16.2317 8.37257 17.7527 9.55509C18.5076 10.142 19.1064 10.7531 19.5068 11.2636C19.7077 11.5198 19.8464 11.7351 19.9298 11.8959C20.0293 12.0877 20 12.1056 20 12H22Z" fill="#757575" mask="url(#path-2-inside-1)"/>
<path d="M12 8.625C10.1367 8.625 8.625 10.1367 8.625 12C8.625 13.8633 10.1367 15.375 12 15.375C13.8633 15.375 15.375 13.8633 15.375 12C15.375 10.1367 13.8633 8.625 12 8.625ZM11.0859 12C10.3125 12 9.64453 11.3672 9.64453 10.5586C9.64453 9.78516 10.2773 9.11719 11.0859 9.11719C11.8594 9.11719 12.5273 9.75 12.5273 10.5586C12.5273 11.3672 11.8945 12 11.0859 12Z" fill="#757575"/>
</svg>
