<svg width="32" height="32" viewBox="0 0 32 32" fill="none" xmlns="http://www.w3.org/2000/svg">
<path d="M12.6666 3.66675C12.6666 3.66675 12.6666 3.66675 12.6666 3.66675C12.6666 3.66675 12.6666 3.66675 12.6666 3.66675C12.6668 3.66675 12.6668 3.66675 12.6667 3.66675M12.6666 3.66675L12.6667 3.66674L12.6667 3.66675M12.6666 3.66675C12.6662 3.66675 12.6665 3.66675 12.6667 3.66675M12.6666 3.66675L12.6667 3.66675M6.33325 4.66675C6.33325 4.50171 6.40813 4.22042 6.55526 3.9609C6.58799 4.01442 6.62211 4.07109 6.65868 4.13184C6.72837 4.2476 6.80699 4.37819 6.90192 4.53008C7.11706 4.8743 7.40025 5.29729 7.7553 5.63814C8.11381 5.98231 8.6411 6.33341 9.33325 6.33341C10.0251 6.33341 10.5494 5.98196 10.9074 5.65155C11.2462 5.33875 11.5431 4.94266 11.7754 4.63282C11.7836 4.6218 11.7918 4.61088 11.7999 4.60008C12.0642 4.2477 12.2583 3.99428 12.449 3.81822C12.5373 3.73671 12.5991 3.69706 12.6361 3.67889C12.6532 3.67049 12.6628 3.66779 12.6657 3.66707C12.6658 3.66704 12.6659 3.66701 12.666 3.66698C12.684 3.67123 12.7516 3.69589 12.8841 3.81822C13.0749 3.99428 13.269 4.2477 13.5333 4.60008C13.5414 4.61088 13.5495 4.6218 13.5578 4.63282C13.79 4.94266 14.0869 5.33875 14.4258 5.65155C14.7837 5.98196 15.3081 6.33341 15.9999 6.33341C16.6917 6.33341 17.2161 5.98196 17.574 5.65155C17.9129 5.33875 18.2098 4.94266 18.442 4.63282C18.4503 4.6218 18.4585 4.61088 18.4666 4.60008C18.7309 4.2477 18.925 3.99428 19.1157 3.81822C19.2469 3.69709 19.3145 3.67172 19.3333 3.66711C19.352 3.67172 19.4196 3.69709 19.5508 3.81822C19.7415 3.99428 19.9356 4.2477 20.1999 4.60008C20.208 4.61088 20.2162 4.6218 20.2245 4.63282C20.4567 4.94266 20.7536 5.33875 21.0925 5.65155C21.4504 5.98196 21.9748 6.33341 22.6666 6.33341C23.3587 6.33341 23.886 5.98231 24.2445 5.63814C24.5996 5.29729 24.8828 4.8743 25.0979 4.53008C25.1929 4.37818 25.2715 4.24759 25.3412 4.13183C25.4018 4.03111 25.4557 3.94161 25.5077 3.85905C25.586 4.00687 25.6666 4.26257 25.6666 4.66675V27.3334C25.6666 27.7349 25.555 28.0238 25.4408 28.1893C25.3924 28.1289 25.3422 28.0634 25.2845 27.9882C25.2147 27.8971 25.134 27.7917 25.0322 27.6639C24.6428 27.1747 23.8678 26.2401 22.6666 26.2401C22.0526 26.2401 21.5581 26.486 21.1835 26.7586C20.8301 27.0158 20.5233 27.3429 20.2905 27.5911L20.2797 27.6026C20.0168 27.8829 19.8359 28.0738 19.6583 28.2076C19.4954 28.3302 19.4255 28.3334 19.4063 28.3334C19.3809 28.3334 19.2969 28.3256 19.1117 28.1931C18.9163 28.0533 18.7154 27.8554 18.4348 27.5769L18.4254 27.5676C18.1741 27.3182 17.8503 26.9969 17.4868 26.7451C17.1071 26.4822 16.6087 26.2401 15.9999 26.2401C15.3859 26.2401 14.8916 26.4861 14.517 26.7582C14.1665 27.0129 13.8607 27.3367 13.628 27.5832L13.612 27.6002C13.3486 27.8791 13.1656 28.07 12.9859 28.2035C12.8215 28.3255 12.7446 28.3334 12.713 28.3334C12.6778 28.3334 12.5918 28.3227 12.4144 28.1949C12.2247 28.0582 12.0299 27.8632 11.7586 27.5866L11.7364 27.5639C11.4963 27.319 11.1861 27.0026 10.8389 26.7541C10.4684 26.4888 9.97523 26.2401 9.36637 26.2401C8.757 26.2401 8.26128 26.4889 7.8902 26.7669C7.52751 27.0386 7.23078 27.3781 7.0056 27.6527C6.90667 27.7734 6.82606 27.8751 6.75562 27.9639C6.7002 28.0338 6.65107 28.0957 6.60428 28.1528C6.59948 28.1456 6.59464 28.1383 6.58977 28.1308C6.42899 27.882 6.33325 27.5672 6.33325 27.3311V4.66675ZM6.81579 3.63529C6.81579 3.63535 6.81466 3.6361 6.8124 3.63732C6.81467 3.63583 6.8158 3.63522 6.81579 3.63529ZM12.6649 3.66672C12.6624 3.66663 12.6611 3.66635 12.6611 3.66624C12.6611 3.66612 12.6623 3.66617 12.6649 3.66672ZM19.3388 3.66624C19.3387 3.66635 19.3374 3.66663 19.335 3.66672C19.3375 3.66617 19.3388 3.66612 19.3388 3.66624ZM19.3315 3.66672C19.3291 3.66663 19.3278 3.66635 19.3277 3.66624C19.3277 3.66612 19.329 3.66617 19.3315 3.66672ZM25.2919 28.3382C25.2919 28.3381 25.2926 28.3379 25.294 28.3375L25.2919 28.3382ZM6.79101 28.3579C6.79101 28.3579 6.79028 28.3575 6.78882 28.3566C6.79028 28.3574 6.79102 28.3578 6.79101 28.3579Z" stroke="white" stroke-width="2"/>
<line x1="11.1667" y1="11.5" x2="20.8334" y2="11.5" stroke="white" stroke-linecap="round"/>
<line x1="11.1667" y1="15.5" x2="20.8334" y2="15.5" stroke="white" stroke-linecap="round"/>
<line x1="16.5" y1="19.5" x2="20.8333" y2="19.5" stroke="white" stroke-linecap="round"/>
</svg>
