<svg width="24" height="24" viewBox="0 0 24 24" fill="none" xmlns="http://www.w3.org/2000/svg">
<rect x="10.5" y="17.5" width="11" height="4" rx="0.5" stroke="#757575"/>
<path fill-rule="evenodd" clip-rule="evenodd" d="M12.457 11.7886C12.457 13.1905 13.2165 13.8914 15.5533 14.6463C16.9627 15.1016 17.9258 15.5765 18.4682 16H10C9.44772 16 9 16.4477 9 17V18H2V16.7491C2 16.2099 3.05155 15.4012 5.3299 14.6463C7.66667 13.8375 8.42612 13.1905 8.42612 11.7886C8.42612 11.6269 8.42612 11.5191 8.3677 11.4112C8.30936 11.2676 8.21218 11.1659 8.09987 11.0483C7.87478 10.8125 7.58888 10.5132 7.43299 9.68584C7.38688 9.43049 7.25887 9.37669 7.11362 9.31564C6.89082 9.222 6.62743 9.1113 6.5567 8.23005C6.5567 7.63695 6.90722 7.4752 6.90722 7.4752C6.90722 7.4752 6.73196 6.61251 6.67354 5.96549C6.61512 5.15672 7.19931 3 10.4124 3H10.4708H10.5292C13.8007 3 14.3849 5.15672 14.2096 5.96549C14.1512 6.61251 13.9759 7.4752 13.9759 7.4752C13.9759 7.4752 14.3265 7.63695 14.3265 8.23005C14.2557 9.1113 13.9923 9.222 13.7695 9.31564C13.6243 9.37669 13.4963 9.43049 13.4502 9.68584C13.2943 10.5132 13.0084 10.8125 12.7833 11.0483C12.671 11.1659 12.5738 11.2676 12.5155 11.4112C12.457 11.5191 12.457 11.6269 12.457 11.7886Z" fill="#757575"/>
<line x1="12" y1="19.5" x2="14" y2="19.5" stroke="#757575"/>
<line x1="15" y1="19.5" x2="17" y2="19.5" stroke="#757575"/>
<line x1="18" y1="19.5" x2="20" y2="19.5" stroke="#757575"/>
</svg>
