<svg width="36" height="36" viewBox="0 0 24 24" fill="none" xmlns="http://www.w3.org/2000/svg">
<circle cx="11.9619" cy="8.89697" r="1.5" fill="#757575" stroke="#757575"/>
<path d="M11.9619 19.119C11.8327 18.9612 11.6749 18.7655 11.496 18.5373C10.9868 17.8876 10.3085 16.9777 9.6311 15.9359C8.95284 14.8927 8.28124 13.726 7.7806 12.5621C7.27742 11.3923 6.96191 10.2592 6.96191 9.27402C6.96191 6.54437 9.14197 4.39697 11.9619 4.39697C14.7819 4.39697 16.9619 6.54437 16.9619 9.27402C16.9619 10.2592 16.6464 11.3923 16.1432 12.5621C15.6426 13.726 14.971 14.8927 14.2927 15.9359C13.6153 16.9777 12.937 17.8876 12.4278 18.5373C12.2489 18.7655 12.0911 18.9612 11.9619 19.119Z" stroke="#757575"/>
</svg>
