<svg width="140" height="100" viewBox="0 0 140 100" fill="none" xmlns="http://www.w3.org/2000/svg">
<path d="M50.9714 38.7713L36.2852 5.88254L46.521 2.27829L54.5317 36.9692L50.9714 38.7713Z" fill="#E0E0E0"/>
<path d="M67.5776 36.1542L76.2227 16.7942L70.1973 14.6726L65.4819 35.0933L67.5776 36.1542Z" fill="#E0E0E0"/>
<path d="M98.7722 87.7638L54.2236 75.827C49.1781 74.4751 47.5738 68.1111 51.3754 64.5289L83.3128 34.4341C86.9229 31.0322 92.8511 32.6207 94.2767 37.3719L106.888 79.4034C108.389 84.4065 103.818 89.1157 98.7722 87.7638Z" fill="white" stroke="#F44336" stroke-width="4.13143"/>
<path d="M85.5615 47.9681L82.1086 60.8547" stroke="#F44336" stroke-width="4.99903" stroke-linecap="round"/>
<circle cx="79.5195" cy="70.5196" r="3.33529" transform="rotate(15 79.5195 70.5196)" fill="#F44336"/>
<path d="M48.5073 55.6924C44.09 57.6224 41.0029 62.0302 41.0029 67.159C41.0029 68.6208 41.2537 70.0241 41.7146 71.3281" stroke="#9E9E9E" stroke-width="1.66764" stroke-linecap="round"/>
<path d="M112.059 73.3733C115.161 77.0627 115.973 82.3825 113.697 86.979C113.049 88.2891 112.201 89.4355 111.21 90.3997" stroke="#9E9E9E" stroke-width="1.66764" stroke-linecap="round"/>
<path d="M42.6706 53.4063C38.6078 56.6129 36 61.5814 36 67.1589C36 69.8445 36.6046 72.3889 37.6851 74.6633" stroke="#9E9E9E" stroke-width="1.66764" stroke-linecap="round"/>
<path d="M118.304 73.9139C120.523 78.5901 120.655 84.1998 118.181 89.1985C116.99 91.6053 115.319 93.6173 113.342 95.1764" stroke="#9E9E9E" stroke-width="1.66764" stroke-linecap="round"/>
<circle cx="55.5484" cy="43.5925" r="4.13143" fill="#E0E0E0"/>
<circle r="2.43196" transform="matrix(-1 0 0 1 64.8825 38.9922)" fill="#E0E0E0"/>
</svg>
