<svg width="24" height="24" viewBox="0 0 24 24" fill="none" xmlns="http://www.w3.org/2000/svg">
<path d="M5 20.4983V3.58642C5.15979 3.83857 5.37394 4.1502 5.64341 4.40889C5.93681 4.69056 6.39118 5 7 5C7.60848 5 8.05992 4.69021 8.35015 4.4223C8.62159 4.17175 8.85645 3.8583 9.02801 3.62934C9.03546 3.6194 9.04279 3.60961 9.05 3.6C9.24829 3.33562 9.37879 3.1668 9.5 3.05326C9.6212 3.1668 9.75171 3.33562 9.95 3.6C9.95721 3.60961 9.96454 3.6194 9.97199 3.62934C10.1435 3.8583 10.3784 4.17175 10.6498 4.4223C10.9401 4.69021 11.3915 5 12 5C12.6085 5 13.0599 4.69021 13.3502 4.4223C13.6216 4.17175 13.8565 3.85829 14.028 3.62933C14.0355 3.61939 14.0428 3.60961 14.05 3.6C14.2483 3.33562 14.3788 3.1668 14.5 3.05326C14.6212 3.1668 14.7517 3.33562 14.95 3.6C14.9572 3.60961 14.9645 3.61939 14.972 3.62933C15.1435 3.85829 15.3784 4.17175 15.6498 4.4223C15.9401 4.69021 16.3915 5 17 5C17.6088 5 18.0632 4.69056 18.3566 4.40889C18.6261 4.1502 18.8402 3.83857 19 3.58642V20.5C19 20.5436 18.9979 20.5845 18.9942 20.6229C18.9863 20.6129 18.9782 20.6026 18.9698 20.5921C18.6845 20.2338 18.0346 19.43 17 19.43C16.4694 19.43 16.0478 19.6432 15.7406 19.8668C15.4561 20.0737 15.2123 20.3338 15.0402 20.5174L15.0275 20.5309C14.826 20.7457 14.7058 20.8712 14.5934 20.9559C14.5756 20.9693 14.561 20.9793 14.5494 20.9867C14.5326 20.9773 14.5094 20.963 14.4794 20.9414C14.3525 20.8507 14.217 20.7182 14.0023 20.5052L13.9904 20.4934C13.8046 20.309 13.5485 20.0548 13.2575 19.8532C12.9486 19.6394 12.5254 19.43 12 19.43C11.4693 19.43 11.0479 19.6433 10.7409 19.8663C10.4588 20.0713 10.2156 20.3289 10.0435 20.5112L10.0273 20.5284C9.82567 20.7419 9.70411 20.8674 9.59043 20.9518C9.56498 20.9707 9.5457 20.983 9.53196 20.991C9.51536 20.9822 9.49072 20.9675 9.45698 20.9432C9.33538 20.8557 9.20464 20.726 8.9975 20.5148C8.99076 20.5079 8.98392 20.501 8.97697 20.4939C8.79942 20.3127 8.55335 20.0616 8.27475 19.8622C7.97275 19.646 7.55243 19.43 7.02484 19.43C6.49673 19.43 6.07341 19.6461 5.76783 19.875C5.47062 20.0976 5.23248 20.3718 5.06094 20.581C5.04556 20.5997 5.03085 20.6178 5.01675 20.6351C5.00474 20.5804 5 20.5338 5 20.4983ZM9.58756 2.98337C9.58755 2.98342 9.58659 2.98398 9.58469 2.98485C9.58662 2.98374 9.58757 2.98331 9.58756 2.98337ZM9.41531 2.98485C9.41341 2.98398 9.41245 2.98342 9.41244 2.98337C9.41243 2.98331 9.41338 2.98374 9.41531 2.98485ZM14.5876 2.98337C14.5876 2.98342 14.5866 2.98398 14.5847 2.98485C14.5866 2.98374 14.5876 2.98331 14.5876 2.98337ZM14.4153 2.98485C14.4134 2.98398 14.4124 2.98342 14.4124 2.98337C14.4124 2.98331 14.4134 2.98374 14.4153 2.98485ZM18.8384 21.0434C18.8383 21.0431 18.8402 21.0412 18.8442 21.0384C18.8404 21.0422 18.8384 21.0436 18.8384 21.0434ZM14.5142 21.0058C14.5142 21.0058 14.5151 21.0054 14.5168 21.0049C14.515 21.0056 14.5142 21.0059 14.5142 21.0058ZM14.5833 21.0029C14.5845 21.0032 14.5851 21.0034 14.5851 21.0035L14.5833 21.0029ZM9.50497 21.004C9.50499 21.004 9.50614 21.0035 9.50835 21.0029C9.50605 21.0038 9.50495 21.0041 9.50497 21.004ZM9.55617 21.002C9.55804 21.0024 9.55902 21.0027 9.55904 21.0028C9.55906 21.0029 9.55812 21.0027 9.55617 21.002Z" stroke="#276EF1" stroke-width="2"/>
<line x1="8.5" y1="8.5" x2="15.5" y2="8.5" stroke="#276EF1" stroke-linecap="round"/>
<line x1="8.5" y1="11.5" x2="15.5" y2="11.5" stroke="#276EF1" stroke-linecap="round"/>
<line x1="12.5" y1="14.5" x2="15.5" y2="14.5" stroke="#276EF1" stroke-linecap="round"/>
</svg>
