<svg xmlns="http://www.w3.org/2000/svg" fill="none" viewBox="0 0 87 28">
  <defs/>
  <path fill="#fff" d="M86.6303 12.3407c.0108.7272-.1652 1.4451-.5111 2.085-.2936.5483-.7178 1.0159-1.2351 1.3616-.4753.3822-1.0273.6579-1.6185.8085-.5547.1521-1.1285.2237-1.7036.2128H68.231c.1584.6176.4654 1.1873.8944 1.6594.3893.4422.85.8162 1.3629 1.1064.7093.3667 1.5019.5427 2.2999.5106.466.0681.9395.0681 1.4055 0l1.3629-.5106 1.363-.5107c.4947-.0651.9959-.0651 1.4906 0 .7284-.0157 1.4525.1145 2.1296.383.6149.3042 1.176.7066 1.661 1.1914l2.1296 2.085c-1.5077 1.6809-3.35 3.0287-5.4091 3.9572-1.8672.8697-3.9025 1.32-5.9627 1.3191-1.8567.0172-3.6974-.3448-5.4091-1.0638-1.5879-.728-3.0309-1.7371-4.2591-2.9785-1.2325-1.2263-2.2286-2.6687-2.9388-4.2551-.7528-1.6861-1.1306-3.5153-1.1073-5.3614-.1077-1.9997.2571-3.9966 1.0648-5.82946.7199-1.58087 1.7149-3.02157 2.9387-4.25508 1.23-1.22837 2.6731-2.22321 4.2591-2.93601C69.2427.463776 71.1505.0127297 73.0864.00097656 74.6447.0046375 76.1892.293056 77.6436.851993c1.4416.562547 2.791 1.337007 4.0036 2.297747 1.1739.98843 2.2058 2.13391 3.0665 3.40406.8443 1.30106 1.4501 2.7419 1.7888 4.2551.023.3116.023.6245 0 .9361.0852.2128.1278.4255.1278.5957zm-8.5182-1.4893c-.2926-.6235-.6806-1.19768-1.15-1.702-.4403-.46909-.9592-.85787-1.5332-1.14887-.7282-.35651-1.5319-.5317-2.3425-.51061-.8486-.02693-1.6882.17911-2.4277.59571-.5954.34864-1.1281.79451-1.5759 1.31908-.3486.44122-.6352.92799-.8518 1.44669h9.8811z"/>
  <path fill="#fff" d="M33.3911.25647c-.4578.593744-1.0208 1.09853-1.661 1.48928-.8242.57101-1.7737.93584-2.7684 1.06377v3.91467h2.6406V27.1486h8.2627V.25647h-6.4739z"/>
  <path fill="#fff" d="M55.9646 7.14982c-.4057-1.39682-1.0863-2.69875-2.0018-3.82958-.8514-1.06654-1.947-1.91297-3.1943-2.467945-1.3427-.583953-2.7949-.8741207-4.2591-.85101599C45.6711.00032892 44.8377.129523 44.0391.384236c-.7772.230033-1.5215.558953-2.2147.978674-.6425.37085-1.2302.82911-1.7463 1.36162v8.80807c.0224-.4043.139-.7978.3408-1.1489.3279-.45263.7491-.82986 1.2351-1.10634.5476-.35649 1.1528-.61562 1.7888-.76592.6819-.174 1.3833-.2598 2.087-.2553.2967-.04028.5976-.04028.8944 0 .3534.09967.6664.30812.8944.59571.3261.37162.5725.80606.724 1.27655.1894.7507.2754 1.5238.2556 2.2977v14.7652h8.5182V12.2134c-.026-1.7212-.3132-3.42848-.8518-5.06358zM13.8846.00159117C11.1433-.0068228 8.46121.798152 6.17838 2.31446 3.89555 3.83077 2.11477 5.99013 1.06182 8.51879.00887452 11.0474-.268833 13.8315.263908 16.518c.532741 2.6866 1.851942 5.1546 3.790352 7.0911 1.93841 1.9366 4.40874 3.2546 7.09784 3.7868 2.689.5322 5.4757.2548 8.0068-.7972 2.531-1.0519 4.6924-2.831 6.2101-5.1117 1.5178-2.2807 2.3235-4.9602 2.3151-7.6989 0-3.6564-1.4539-7.16308-4.0418-9.74855C21.0544 1.45409 17.5445.00159117 13.8846.00159117zm0 19.23300883c-1.0782 0-2.1322-.3195-3.0288-.9179-.89648-.5985-1.59523-1.4491-2.00786-2.4444-.41262-.9952-.52058-2.0903-.31023-3.1468.21036-1.0565.72958-2.027 1.49199-2.7887.7624-.76171 1.7338-1.28044 2.7913-1.49059 1.0576-.21016 2.1537-.1023 3.1499.30993.9961.41224 1.8476 1.11033 2.4466 2.00596.599.8957.9188 1.9487.9188 3.026.0056.7168-.1315 1.4276-.4035 2.0909-.2719.6634-.6733 1.2661-1.1806 1.7729-.5074.5069-1.1107.9079-1.7746 1.1796-.664.2717-1.3755.4087-2.093.4031z"/>
</svg>
