<svg width="104" height="104" viewBox="0 0 104 104" fill="none" xmlns="http://www.w3.org/2000/svg">
<path d="M40.3523 39.6025C40.3783 39.7192 40.4044 39.8125 40.4305 39.9059C40.4044 39.8125 40.3783 39.6958 40.3523 39.6025ZM33.1009 75.7559H33.2574H89.3384C90.3818 75.7559 91.2947 75.1957 91.5555 74.3555L103.919 37.8287C104.102 37.2685 103.972 36.6617 103.554 36.1715C103.111 35.6814 102.433 35.4013 101.702 35.4013H92.625C92.5989 36.685 92.4685 37.9687 92.2337 39.229H98.6505L87.5647 71.9515H35.1093L26.5015 39.229H31.5619C31.3271 37.9687 31.1967 36.7083 31.1706 35.4013H25.4843L23.1367 26.4622C22.9019 25.5986 21.9629 24.9451 20.8674 24.9451H2.32149C1.04337 24.9684 0 25.8086 0 26.8589C0 27.9092 1.04337 28.7728 2.32149 28.7728H19.0154L19.1458 29.3096C19.3806 30.1965 23.241 44.9006 30.049 70.7145L30.4663 72.3016L29.8403 72.535C26.7363 73.6786 24.7278 76.246 24.7278 79.0701C24.7278 82.9912 28.5361 86.1888 33.2313 86.1888H89.3384C90.6165 86.1888 91.6599 85.3252 91.6599 84.2749C91.6599 83.2246 90.6165 82.361 89.3384 82.361H33.2574C31.1185 82.361 29.3708 80.8673 29.3708 79.0468C29.3708 77.273 31.0402 75.8025 33.1009 75.7559ZM83.9129 39.9059C83.939 39.8125 83.965 39.6958 83.9911 39.6025C83.965 39.6958 83.939 39.8125 83.9129 39.9059Z" fill="#57C478"/>
<path d="M39.2742 87.8925C34.9452 87.8925 31.4507 91.5167 31.4507 95.9462C31.4507 100.376 34.9712 104 39.2742 104C43.6031 104 47.0976 100.376 47.0976 95.9462C47.0976 91.5167 43.6031 87.8925 39.2742 87.8925ZM39.2742 99.8926C37.1618 99.8926 35.4407 98.1208 35.4407 95.9462C35.4407 93.7717 37.1618 91.9999 39.2742 91.9999C41.3865 91.9999 43.1076 93.7717 43.1076 95.9462C43.1076 98.1208 41.3865 99.8926 39.2742 99.8926Z" fill="#57C478"/>
<path d="M80.4773 87.8925C76.1484 87.8925 72.6539 91.5167 72.6539 95.9462C72.6539 100.376 76.1744 104 80.4773 104C84.8063 104 88.3008 100.376 88.3008 95.9462C88.3008 91.5167 84.8063 87.8925 80.4773 87.8925ZM80.4773 99.8926C78.365 99.8926 76.6438 98.1208 76.6438 95.9462C76.6438 93.7717 78.365 91.9999 80.4773 91.9999C82.5897 91.9999 84.3108 93.7717 84.3108 95.9462C84.3108 98.1208 82.5897 99.8926 80.4773 99.8926Z" fill="#57C478"/>
<path d="M61.9099 0C47.4104 0 35.623 12.1344 35.623 27.0607V27.1412C35.623 29.2084 35.8577 31.195 36.3011 33.1279C38.9871 45.128 49.4445 54.0677 61.9099 54.0677C74.3492 54.0677 84.8066 45.1012 87.5187 33.1279C87.9621 31.195 88.1707 29.2084 88.1968 27.1412V27.0607C88.1707 12.1344 76.3833 0 61.9099 0ZM84.4154 27.1681C84.4154 28.7251 84.259 30.2285 83.9721 31.705C83.9199 31.9467 83.8678 32.1883 83.8156 32.4299C83.7635 32.6715 83.7113 32.9131 83.6331 33.1547C81.0253 42.9803 72.263 50.2287 61.9099 50.2287C51.5308 50.2287 42.7946 42.9803 40.1867 33.1547C40.0563 32.6715 39.952 32.1883 39.8477 31.705C39.5609 30.2285 39.4044 28.7251 39.4044 27.1681V27.0875C39.4044 14.3089 49.4967 3.89266 61.936 3.89266C74.3492 3.89266 84.4676 14.3089 84.4676 27.0875V27.1681H84.4154Z" fill="#148235"/>
<path d="M75.2357 16.913L65.9518 27.1682L60.5015 33.1548L58.4152 35.4367L56.0943 33.1548L50.018 27.1413L48.4794 25.6379C47.7231 24.9131 46.5496 24.94 45.8194 25.6916C45.4543 26.0943 45.2718 26.6312 45.2979 27.1413C45.3239 27.5977 45.5065 28.0809 45.8716 28.4299L50.67 33.1548L57.1895 39.5978C57.5286 39.9468 57.998 40.1347 58.4935 40.1347H58.5456C59.0411 40.1347 59.5105 39.8931 59.8756 39.5173L65.6389 33.1548L71.0892 27.1413L77.9739 19.5439C78.678 18.7654 78.6519 17.5305 77.8957 16.8056C77.1394 16.0808 75.9398 16.1345 75.2357 16.913Z" fill="#148235"/>
</svg>
